<?xml version="1.0" standalone="no"?>
<!DOCTYPE svg PUBLIC "-//W3C//DTD SVG 20010904//EN"
 "http://www.w3.org/TR/2001/REC-SVG-20010904/DTD/svg10.dtd">
<svg version="1.0" xmlns="http://www.w3.org/2000/svg"
 width="1060.000000pt" height="1060.000000pt" viewBox="0 0 1060.000000 1060.000000"
 preserveAspectRatio="xMidYMid meet">
<metadata>
Created by potrace 1.14, written by Peter Selinger 2001-2017
</metadata>
<g transform="translate(0.000000,1060.000000) scale(0.100000,-0.100000)"
fill="#000000" stroke="none">
<path d="M6717 8936 c-132 -48 -189 -188 -207 -505 -24 -406 -73 -700 -161
-963 -31 -91 -97 -243 -124 -285 l-15 -22 -77 35 c-139 64 -233 86 -384 91
-84 4 -163 1 -205 -6 -305 -53 -696 -293 -1184 -727 -449 -399 -1530 -1533
-1934 -2029 -432 -530 -612 -899 -552 -1135 37 -144 150 -244 330 -290 441
-112 1322 31 2376 388 565 192 1155 444 1511 648 539 307 907 768 1010 1264
52 251 25 544 -71 774 -20 47 -26 72 -19 77 28 17 209 34 364 34 l170 -1 225
-56 c283 -71 323 -78 435 -78 78 0 98 4 144 26 31 16 64 43 81 66 84 116 56
348 -70 582 -28 51 -50 98 -50 104 0 7 21 23 48 36 26 13 76 45 112 72 190
139 290 315 260 458 -22 107 -103 181 -252 230 -46 15 -99 34 -119 42 l-37 16
19 53 c29 84 34 153 15 236 -32 145 -109 240 -219 270 -63 17 -205 4 -347 -31
-69 -17 -162 -33 -207 -37 -98 -7 -78 -23 -237 192 -57 77 -138 179 -180 227
-171 196 -336 285 -449 244z m136 -178 c54 -27 177 -147 266 -259 105 -134
212 -288 213 -307 0 -10 -4 -71 -11 -137 -16 -171 -14 -260 5 -301 38 -79 106
-48 254 115 8 9 26 33 40 54 14 20 28 37 33 37 4 0 7 6 7 14 0 8 3 16 8 18 4
2 22 26 40 53 57 89 64 93 159 116 48 12 123 22 165 23 72 1 79 -1 107 -28 62
-59 80 -186 41 -285 -48 -123 -12 -201 123 -259 44 -20 47 -23 42 -52 -22
-123 -146 -259 -271 -295 -35 -10 -125 -20 -230 -25 -191 -10 -269 -31 -306
-80 -28 -39 -13 -70 82 -167 109 -113 153 -168 172 -218 46 -119 -52 -145
-592 -160 -131 -3 -142 -2 -118 11 50 26 265 83 380 100 62 9 116 18 121 21 4
2 7 15 7 28 0 36 -33 40 -205 27 -205 -17 -408 -62 -583 -131 l-52 -21 -30 42
-30 41 22 36 c12 20 37 56 54 81 70 99 241 376 294 478 28 53 32 67 22 83 -7
12 -8 19 -2 19 5 0 10 -4 10 -10 0 -5 4 -10 9 -10 14 0 71 166 71 205 0 19 8
69 17 111 16 74 16 77 -2 90 -11 8 -24 13 -29 11 -5 -2 -24 -37 -41 -78 -84
-195 -266 -452 -523 -737 l-75 -83 -36 34 c-29 27 -79 67 -130 104 -2 1 21 53
52 115 154 309 232 674 267 1243 16 264 56 379 125 358 11 -3 37 -14 58 -25z
m824 -694 c-3 -3 -12 -4 -19 -1 -8 3 -5 6 6 6 11 1 17 -2 13 -5z m828 -562
c-3 -3 -11 0 -18 7 -9 10 -8 11 6 5 10 -3 15 -9 12 -12z m-1482 -173 c-8 -8
-13 -7 -18 2 -6 8 -4 10 5 4 10 -6 12 -4 6 11 -6 15 -5 17 5 7 9 -10 10 -16 2
-24z m1507 -3 c0 -2 -8 -10 -17 -17 -16 -13 -17 -12 -4 4 13 16 21 21 21 13z
m-1497 -21 c-3 -9 -8 -14 -10 -11 -3 3 -2 9 2 15 9 16 15 13 8 -4z m-1187
-186 c79 -14 124 -28 124 -41 0 -5 24 -38 53 -72 51 -60 54 -62 54 -35 0 15
-4 26 -8 23 -4 -2 -10 0 -14 6 -3 5 1 10 10 10 9 0 14 4 10 9 -13 21 13 18 60
-8 29 -16 49 -34 48 -42 -2 -8 11 -20 28 -26 21 -8 28 -16 23 -25 -6 -9 -3 -9
10 1 15 13 21 11 49 -18 l32 -33 -30 18 c-24 16 -28 16 -23 3 4 -9 -3 -23 -18
-35 -14 -10 -30 -24 -37 -30 -6 -6 -20 -9 -30 -6 -15 4 -11 -7 19 -54 22 -32
41 -61 44 -64 21 -20 129 -222 180 -337 20 -46 40 -80 44 -76 4 4 4 1 1 -8 -3
-8 1 -31 9 -51 52 -123 80 -301 77 -478 -3 -176 -5 -250 -8 -250 -1 0 -29 37
-61 83 -83 114 -137 165 -160 151 -30 -19 -24 -39 31 -116 29 -42 73 -114 96
-160 l42 -86 -43 -83 c-23 -46 -48 -90 -55 -97 -17 -17 -17 -35 0 -26 7 4 9 3
4 -2 -5 -5 -12 -9 -15 -9 -4 0 -31 -29 -61 -65 -73 -87 -169 -182 -263 -258
-56 -46 -76 -67 -72 -80 5 -13 4 -14 -4 -4 -7 11 -20 6 -63 -24 -30 -21 -83
-57 -119 -80 -36 -24 -70 -47 -75 -52 -11 -9 -105 -64 -209 -122 -35 -19 -70
-40 -77 -46 -21 -18 -537 -269 -594 -290 -27 -10 -63 -26 -80 -35 -16 -9 -63
-29 -102 -44 -49 -18 -73 -32 -74 -43 -1 -10 -7 23 -15 71 -16 107 -60 238
-105 314 -49 82 -141 178 -163 170 -11 -4 -16 -15 -14 -29 2 -13 -4 -28 -12
-35 -10 -8 -11 -12 -3 -13 7 0 10 -7 7 -15 -4 -8 -1 -15 4 -15 6 0 14 -9 17
-20 4 -11 11 -17 17 -14 7 5 9 2 6 -7 -7 -17 26 -61 37 -51 5 4 5 2 2 -4 -4
-7 13 -56 37 -110 39 -90 76 -218 76 -265 0 -11 -7 -19 -15 -19 -8 0 -15 -5
-15 -11 0 -5 -4 -8 -9 -5 -5 3 -21 0 -36 -8 -28 -15 -19 -30 12 -20 16 6 16 5
-1 -8 -17 -13 -22 -13 -34 -2 -17 17 -23 17 -64 0 -34 -15 -165 -64 -328 -123
-52 -19 -124 -44 -160 -55 -36 -10 -74 -23 -85 -28 -45 -20 -574 -184 -715
-221 -47 -12 -139 -37 -205 -54 l-120 -32 0 -39 c0 -22 -7 -51 -16 -65 -19
-28 -88 -54 -103 -39 -6 6 -18 10 -28 10 -10 0 -18 4 -18 9 0 5 -16 12 -35 15
-19 4 -35 10 -35 14 0 12 15 29 30 35 26 10 -33 8 -70 -3 -19 -5 -90 -20 -157
-33 l-122 -24 -44 29 c-122 79 -123 228 -3 473 110 224 292 475 648 889 l26
31 87 -44 c64 -33 110 -66 180 -133 108 -102 179 -202 254 -358 58 -120 66
-131 85 -124 26 10 25 31 -10 134 -88 263 -254 496 -428 602 -31 18 -56 36
-56 40 0 8 435 479 699 758 378 397 933 933 1026 990 21 12 37 12 110 2 280
-41 521 -186 663 -399 33 -50 62 -67 77 -43 8 13 -37 100 -97 187 -115 166
-305 305 -512 373 -65 21 -68 24 -50 37 281 212 530 346 729 392 56 13 230 13
301 0z m1025 -32 c-10 -9 -11 -8 -5 6 3 10 9 15 12 12 3 -3 0 -11 -7 -18z
m1333 -15 c2 -4 -4 -8 -14 -8 -10 0 -16 4 -14 8 3 4 9 8 14 8 5 0 11 -4 14 -8z
m-2154 -17 c0 -1 -8 -5 -18 -7 -11 -3 -19 0 -19 7 0 7 8 10 19 7 10 -2 18 -6
18 -7z m20 -10 c0 -2 -10 -9 -22 -15 -22 -11 -22 -10 -4 4 21 17 26 19 26 11z
m751 -38 c-10 -9 -11 -8 -5 6 3 10 9 15 12 12 3 -3 0 -11 -7 -18z m-575 -68
c3 -6 -5 -3 -20 6 -14 10 -26 19 -26 22 0 7 39 -17 46 -28z m548 -7 c3 -5 -1
-9 -9 -9 -8 0 -12 4 -9 9 3 4 7 8 9 8 2 0 6 -4 9 -8z m-415 -115 c-2 -3 -15
10 -28 27 l-24 31 28 -27 c16 -15 27 -29 24 -31z m331 49 c0 -2 -8 -10 -17
-17 -16 -13 -17 -12 -4 4 13 16 21 21 21 13z m-250 -129 c-3 -2 -20 15 -39 37
l-35 41 39 -37 c22 -21 37 -39 35 -41z m82 -106 c-3 -8 -1 -12 5 -8 6 4 16 0
22 -7 9 -11 9 -14 -1 -12 -24 3 -39 18 -34 32 6 16 -10 19 -19 4 -4 -6 -1 -19
6 -28 7 -9 2 -7 -10 4 -18 17 -21 26 -13 40 8 14 5 26 -10 49 -12 17 -3 10 19
-15 23 -25 38 -51 35 -59z m126 -150 c20 -27 20 -30 4 -43 -15 -12 -16 -11 -4
4 8 10 9 19 3 22 -5 3 -11 3 -14 -1 -2 -5 -2 -3 -1 4 2 7 -1 15 -6 18 -9 6
-14 25 -7 25 2 0 13 -13 25 -29z m104 -156 c10 -18 10 -19 -5 -6 -10 7 -17 9
-17 3 0 -13 25 -33 32 -26 3 3 9 1 12 -4 3 -6 0 -9 -8 -8 -25 3 -45 27 -43 49
1 13 -3 21 -10 20 -8 -2 -10 4 -6 14 6 14 8 14 20 -3 8 -10 19 -28 25 -39z
m1493 17 c-3 -3 -11 0 -18 7 -9 10 -8 11 6 5 10 -3 15 -9 12 -12z m-1431 -128
c3 -8 2 -12 -4 -9 -6 3 -10 10 -10 16 0 14 7 11 14 -7z m20 -50 c3 -8 2 -12
-4 -9 -6 3 -10 10 -10 16 0 14 7 11 14 -7z m-27 -36 c-3 -8 -6 -5 -6 6 -1 11
2 17 5 13 3 -3 4 -12 1 -19z m47 -4 c3 -8 2 -12 -4 -9 -6 3 -10 10 -10 16 0
14 7 11 14 -7z m26 -69 c0 -5 -5 -3 -10 5 -5 8 -10 20 -10 25 0 6 5 3 10 -5 5
-8 10 -19 10 -25z m4 -30 c-4 -8 -8 -15 -10 -15 -2 0 -4 7 -4 15 0 8 4 15 10
15 5 0 7 -7 4 -15z m13 -37 c-3 -8 -6 -5 -6 6 -1 11 2 17 5 13 3 -3 4 -12 1
-19z m10 -40 c-3 -8 -6 -5 -6 6 -1 11 2 17 5 13 3 -3 4 -12 1 -19z m10 -40
c-3 -8 -6 -5 -6 6 -1 11 2 17 5 13 3 -3 4 -12 1 -19z m10 -70 c-3 -7 -5 -2 -5
12 0 14 2 19 5 13 2 -7 2 -19 0 -25z m10 -100 c-2 -13 -4 -3 -4 22 0 25 2 35
4 23 2 -13 2 -33 0 -45z m-2 -213 c-4 -37 -9 -65 -11 -62 -3 2 -2 34 2 71 4
37 9 64 12 62 2 -3 1 -35 -3 -71z m-357 -53 c15 12 16 11 3 -4 -8 -11 -10 -23
-5 -31 5 -7 1 -4 -8 6 -10 11 -18 24 -17 31 0 7 3 6 6 -2 4 -10 8 -10 21 0z
m339 -44 c-3 -8 -6 -5 -6 6 -1 11 2 17 5 13 3 -3 4 -12 1 -19z m-309 -34 c4 2
8 -8 9 -22 l1 -27 -14 25 c-7 14 -13 30 -13 35 0 6 3 4 6 -3 2 -6 8 -10 11 -8z
m292 -44 l-11 -25 6 25 c2 14 5 34 6 45 2 19 2 19 6 0 2 -12 -1 -32 -7 -45z
m-219 -63 c-10 -9 -11 -8 -5 6 3 10 9 15 12 12 3 -3 0 -11 -7 -18z m-12 -32
c0 -5 -6 -1 -14 9 -8 11 -15 24 -15 30 0 5 7 1 15 -10 8 -10 14 -23 14 -29z
m202 4 c-5 -13 -10 -19 -10 -12 -1 15 10 45 15 40 3 -2 0 -15 -5 -28z m-342
-29 c0 -10 -3 -8 -9 5 -12 27 -12 43 0 25 5 -8 9 -22 9 -30z m-32 -2 c-3 -8
-6 -5 -6 6 -1 11 2 17 5 13 3 -3 4 -12 1 -19z m211 -89 c-3 -8 -7 -3 -11 10
-4 17 -3 21 5 13 5 -5 8 -16 6 -23z m125 16 c-3 -9 -8 -14 -10 -11 -3 3 -2 9
2 15 9 16 15 13 8 -4z m-82 -22 c-12 -20 -14 -14 -5 12 4 9 9 14 11 11 3 -2 0
-13 -6 -23z m-194 -25 c-3 -8 -6 -5 -6 6 -1 11 2 17 5 13 3 -3 4 -12 1 -19z
m173 -13 c0 -14 -2 -25 -4 -25 -2 0 -6 11 -8 25 -3 14 -1 25 3 25 5 0 9 -11 9
-25z m63 -21 c-3 -8 -8 -12 -11 -10 -3 3 -11 1 -19 -5 -9 -8 -13 -8 -13 -1 0
6 9 14 20 17 11 4 17 11 14 17 -4 7 -2 8 4 4 6 -4 9 -13 5 -22z m-213 -24 c0
-5 -2 -10 -4 -10 -3 0 -8 5 -11 10 -3 6 -1 10 4 10 6 0 11 -4 11 -10z m183
-30 c-10 -17 -19 -26 -21 -20 -4 10 25 50 35 50 2 0 -4 -14 -14 -30z m-176
-42 c-3 -7 -5 -2 -5 12 0 14 2 19 5 13 2 -7 2 -19 0 -25z m13 -38 c0 -11 -4
-20 -9 -20 -5 0 -7 9 -4 20 3 11 7 20 9 20 2 0 4 -9 4 -20z m0 -150 c-13 -32
-56 -77 -44 -47 3 9 9 17 13 17 11 0 31 47 32 78 2 25 2 25 6 4 3 -13 -1 -37
-7 -52z m-96 -98 c2 -4 -4 -8 -14 -8 -10 0 -16 4 -14 8 3 4 9 8 14 8 5 0 11
-4 14 -8z m-15 -39 c-6 -7 -15 -10 -20 -7 -13 8 -3 21 15 21 12 0 13 -4 5 -14z
m-63 -51 c-17 -16 -18 -16 -5 5 7 12 15 20 18 17 3 -2 -3 -12 -13 -22z m-38
-31 c29 22 -41 -44 -93 -87 -45 -36 -69 -54 -179 -131 -17 -12 -35 -22 -40
-22 -8 -1 35 35 80 67 18 12 18 13 1 8 -11 -4 -16 -2 -12 5 4 6 13 8 21 5 8
-3 14 -2 14 3 0 5 -9 11 -20 14 -12 3 -20 14 -20 26 0 27 30 28 37 2 3 -11 13
-21 24 -24 26 -7 24 1 -6 25 -26 20 -32 42 -15 53 6 4 17 2 24 -4 7 -6 16 -8
20 -4 4 4 4 -1 0 -11 -6 -16 -4 -17 17 -11 21 7 22 6 10 -9 -7 -9 -9 -16 -3
-16 15 0 25 32 12 40 -6 4 0 11 14 18 17 8 27 8 32 1 4 -6 15 -2 30 12 20 18
22 25 11 38 -11 14 -10 14 6 2 14 -11 20 -11 35 0z m-2057 -126 l10 -20 -16
20 c-9 11 -21 29 -26 40 l-10 20 16 -20 c9 -11 21 -29 26 -40z m74 -137 c12
-29 12 -38 2 -44 -6 -4 -9 -4 -5 1 4 4 1 23 -7 42 -8 20 -15 38 -15 41 0 11
10 -5 25 -40z m1655 18 c0 -2 -12 -11 -27 -20 l-28 -17 24 20 c23 21 31 25 31
17z m-126 -58 c-5 -8 -2 -9 9 -5 28 11 19 -1 -13 -18 -32 -17 -54 -20 -30 -5
13 9 13 10 0 10 -9 1 -5 6 10 15 31 18 33 18 24 3z m-1507 -45 c-3 -10 -5 -4
-5 12 0 17 2 24 5 18 2 -7 2 -21 0 -30z m1433 12 c-7 -8 -17 -15 -23 -15 -6 0
-2 7 9 15 25 19 30 19 14 0z m-85 -74 c-3 -2 -11 1 -18 7 -8 7 -18 8 -22 4 -5
-4 -5 -1 -1 5 5 10 11 10 26 1 11 -7 17 -14 15 -17z m-35 -9 c0 -8 -43 -32
-58 -32 -6 0 49 40 56 40 1 0 2 -4 2 -8z m-1273 -54 c-3 -7 -5 -2 -5 12 0 14
2 19 5 13 2 -7 2 -19 0 -25z m10 -40 c-3 -8 -6 -5 -6 6 -1 11 2 17 5 13 3 -3
4 -12 1 -19z m1073 2 c0 -5 -4 -10 -10 -10 -5 0 -10 5 -10 10 0 6 5 10 10 10
6 0 10 -4 10 -10z m-50 -25 c-14 -8 -32 -14 -40 -14 -8 0 -1 6 15 14 40 18 57
18 25 0z m-1013 -52 c-3 -10 -5 -2 -5 17 0 19 2 27 5 18 2 -10 2 -26 0 -35z
m883 -8 c0 -2 -6 -5 -13 -8 -8 -3 -14 1 -14 8 0 7 6 11 14 8 7 -3 13 -6 13 -8z
m-50 -19 c0 -2 -13 -9 -30 -15 -35 -12 -41 -5 -7 9 25 10 37 12 37 6z m-823
-68 c-2 -13 -4 -5 -4 17 -1 22 1 32 4 23 2 -10 2 -28 0 -40z m80 -10 c-2 -13
-4 -5 -4 17 -1 22 1 32 4 23 2 -10 2 -28 0 -40z m617 37 c25 -19 16 -19 -20 0
-16 8 -22 15 -14 15 8 -1 24 -7 34 -15z m-24 -19 c0 -2 -7 -6 -15 -10 -8 -3
-15 -1 -15 4 0 6 7 10 15 10 8 0 15 -2 15 -4z m-80 -36 c-24 -15 -36 -11 -14
4 10 8 21 12 24 10 2 -3 -2 -9 -10 -14z m-43 -13 c2 -2 -22 -13 -53 -25 -31
-11 -52 -16 -47 -11 6 6 28 17 49 24 27 10 32 14 17 15 -12 0 -24 4 -28 9 -5
9 52 -3 62 -12z m-550 -34 c-3 -10 -5 -2 -5 17 0 19 2 27 5 18 2 -10 2 -26 0
-35z m73 -17 c0 -2 -8 -10 -17 -17 -16 -13 -17 -12 -4 4 13 16 21 21 21 13z
m30 -16 c0 -5 -5 -10 -11 -10 -5 0 -7 5 -4 10 3 6 8 10 11 10 2 0 4 -4 4 -10z
m230 -19 c-8 -5 -26 -11 -40 -15 -21 -5 -20 -3 5 9 32 15 60 20 35 6z m-176
-67 c-16 -6 -40 -14 -54 -18 -21 -5 -21 -4 4 8 17 8 24 15 16 18 -7 2 4 4 25
4 l39 0 -30 -12z m-119 -39 c-50 -18 -55 -18 -31 0 11 8 31 15 45 15 22 -1 19
-3 -14 -15z m-230 -45 c-3 -5 -12 -10 -18 -10 -7 0 -6 4 3 10 19 12 23 12 15
0z m45 -10 c8 -5 11 -10 5 -10 -5 0 -17 5 -25 10 -8 5 -10 10 -5 10 6 0 17 -5
25 -10z m-60 -20 c0 -5 -8 -10 -17 -10 -15 0 -16 2 -3 10 19 12 20 12 20 0z
m37 4 c-3 -3 -12 -4 -19 -1 -8 3 -5 6 6 6 11 1 17 -2 13 -5z m-172 -54 c-11
-5 -27 -9 -35 -9 -9 0 -8 4 5 9 11 5 27 9 35 9 9 0 8 -4 -5 -9z m-90 -20 c3
-5 1 -10 -4 -10 -6 0 -11 5 -11 10 0 6 2 10 4 10 3 0 8 -4 11 -10z m-190 -59
c-11 -4 -33 -11 -50 -14 l-30 -6 30 14 c17 8 39 14 50 14 l20 0 -20 -8z m-98
-27 c-3 -3 -12 -4 -19 -1 -8 3 -5 6 6 6 11 1 17 -2 13 -5z m-37 -8 c0 -2 -11
-6 -25 -8 -13 -3 -22 -1 -19 3 5 9 44 13 44 5z m-70 -16 c0 -5 -10 -10 -22 -9
-22 0 -22 1 -3 9 11 5 21 9 23 9 1 1 2 -3 2 -9z m-93 -26 c-3 -3 -12 -4 -19
-1 -8 3 -5 6 6 6 11 1 17 -2 13 -5z m-80 -20 c-3 -3 -12 -4 -19 -1 -8 3 -5 6
6 6 11 1 17 -2 13 -5z m-50 -10 c-3 -3 -12 -4 -19 -1 -8 3 -5 6 6 6 11 1 17
-2 13 -5z m-54 -11 c-7 -2 -19 -2 -25 0 -7 3 -2 5 12 5 14 0 19 -2 13 -5z
m-86 -19 c-3 -3 -12 -4 -19 -1 -8 3 -5 6 6 6 11 1 17 -2 13 -5z m-70 -10 c-3
-3 -12 -4 -19 -1 -8 3 -5 6 6 6 11 1 17 -2 13 -5z m-44 -11 c-7 -2 -19 -2 -25
0 -7 3 -2 5 12 5 14 0 19 -2 13 -5z m-46 -9 c-3 -3 -12 -4 -19 -1 -8 3 -5 6 6
6 11 1 17 -2 13 -5z m-79 -11 c-10 -2 -26 -2 -35 0 -10 3 -2 5 17 5 19 0 27
-2 18 -5z m-791 -19 c-3 -3 -12 -4 -19 -1 -8 3 -5 6 6 6 11 1 17 -2 13 -5z
m641 -1 c-10 -2 -28 -2 -40 0 -13 2 -5 4 17 4 22 1 32 -1 23 -4z m-591 -9 c-3
-3 -12 -4 -19 -1 -8 3 -5 6 6 6 11 1 17 -2 13 -5z m506 -1 c-7 -2 -19 -2 -25
0 -7 3 -2 5 12 5 14 0 19 -2 13 -5z m-395 -10 c-16 -2 -40 -2 -55 0 -16 2 -3
4 27 4 30 0 43 -2 28 -4z m270 0 c-15 -2 -42 -2 -60 0 -18 2 -6 4 27 4 33 0
48 -2 33 -4z"/>
<path d="M6087 7019 c7 -7 15 -10 18 -7 3 3 -2 9 -12 12 -14 6 -15 5 -6 -5z"/>
<path d="M6130 6920 c-13 -23 -13 -33 -1 -25 5 3 12 1 16 -5 11 -18 25 -11 25
14 0 31 -26 41 -40 16z"/>
<path d="M3943 5723 c-15 -6 -17 -39 -3 -48 6 -3 10 -14 11 -23 0 -10 27 -34
62 -56 110 -70 240 -173 299 -235 32 -34 62 -61 67 -61 14 0 41 -41 35 -52 -3
-5 0 -7 7 -6 6 2 21 -16 33 -39 26 -51 56 -64 56 -25 0 99 -181 328 -345 439
-97 65 -199 114 -222 106z m52 -83 c3 -5 2 -10 -4 -10 -5 0 -13 5 -16 10 -3 6
-2 10 4 10 5 0 13 -4 16 -10z m28 -24 c4 -10 1 -13 -8 -9 -8 3 -12 9 -9 14 7
12 11 11 17 -5z m87 -57 l35 -31 -36 25 c-20 15 -39 24 -43 22 -3 -3 -4 -2 -1
2 3 3 -3 12 -13 20 -16 13 -15 13 3 4 11 -6 36 -25 55 -42z m60 -44 c11 -13
10 -14 -4 -9 -9 3 -16 10 -16 15 0 13 6 11 20 -6z m41 -32 c13 -16 12 -17 -3
-4 -10 7 -18 15 -18 17 0 8 8 3 21 -13z m94 -90 c36 -38 65 -71 65 -75 0 -4
-19 13 -42 39 -24 26 -56 59 -73 75 -16 15 -27 28 -23 28 5 0 37 -30 73 -67z"/>
<path d="M4883 5723 c-7 -2 -13 -13 -13 -24 0 -10 -5 -19 -11 -19 -5 0 -7 -5
-3 -11 4 -8 9 -7 14 2 6 9 23 -3 62 -40 30 -29 44 -48 33 -45 -11 4 8 -22 44
-59 36 -37 67 -64 70 -60 3 3 0 8 -7 10 -7 3 -17 14 -24 26 -9 19 -7 18 16 -4
18 -18 24 -32 19 -45 -5 -13 -3 -16 9 -11 21 7 75 -47 57 -58 -7 -5 -10 -4 -5
3 3 6 2 13 -4 17 -18 11 -11 -21 10 -43 27 -28 34 -28 19 1 -8 16 -4 14 15 -8
14 -16 25 -34 26 -39 0 -6 -7 -1 -15 10 -30 39 -13 -4 34 -87 26 -47 56 -109
66 -137 10 -28 23 -48 28 -45 6 3 7 1 3 -5 -4 -7 -4 -29 0 -49 5 -29 9 -33 14
-19 3 10 7 -11 7 -48 0 -36 6 -72 12 -79 6 -8 7 -18 3 -22 -4 -5 6 0 21 11
l28 19 -5 115 c-6 137 -23 205 -81 325 -76 157 -205 296 -361 390 -60 36 -61
37 -81 28z m136 -187 c-3 -3 -11 5 -18 17 -13 21 -12 21 5 5 10 -10 16 -20 13
-22z m242 -309 c17 -34 26 -57 20 -52 -14 15 -70 126 -60 119 5 -3 23 -33 40
-67z m48 -112 c0 -5 -4 -3 -9 5 -5 8 -9 22 -9 30 0 16 17 -16 18 -35z m28 -97
c-3 -8 -6 -5 -6 6 -1 11 2 17 5 13 3 -3 4 -12 1 -19z m20 -90 c-3 -8 -6 -5 -6
6 -1 11 2 17 5 13 3 -3 4 -12 1 -19z"/>
<path d="M4900 5631 c0 -5 5 -13 10 -16 6 -3 10 -2 10 4 0 5 -4 13 -10 16 -5
3 -10 2 -10 -4z"/>
<path d="M5100 5432 c0 -12 19 -26 26 -19 2 2 -2 10 -11 17 -9 8 -15 8 -15 2z"/>
<path d="M4500 5130 c0 -5 5 -10 11 -10 5 0 7 5 4 10 -3 6 -8 10 -11 10 -2 0
-4 -4 -4 -10z"/>
<path d="M2560 3346 c0 -28 24 -41 40 -21 16 20 5 45 -20 45 -14 0 -20 -7 -20
-24z"/>
<path d="M2653 3345 c-9 -24 1 -27 15 -5 8 13 8 20 2 20 -6 0 -13 -7 -17 -15z"/>
<path d="M6506 6653 c-6 -14 -5 -15 5 -6 7 7 10 15 7 18 -3 3 -9 -2 -12 -12z"/>
</g>
</svg>
