<?xml version="1.0" standalone="no"?>
<!DOCTYPE svg PUBLIC "-//W3C//DTD SVG 20010904//EN"
 "http://www.w3.org/TR/2001/REC-SVG-20010904/DTD/svg10.dtd">
<svg version="1.0" xmlns="http://www.w3.org/2000/svg"
 width="137.000000pt" height="137.000000pt" viewBox="0 0 137.000000 137.000000"
 preserveAspectRatio="xMidYMid meet">
<metadata>
Created by potrace 1.14, written by Peter Selinger 2001-2017
</metadata>
<g transform="translate(0.000000,137.000000) scale(0.100000,-0.100000)"
fill="#000000" stroke="none">
<path d="M607 1183 c-25 -29 -65 -115 -76 -166 -11 -46 -10 -88 4 -158 l7 -36
-54 -20 c-29 -11 -53 -26 -53 -34 0 -18 38 -13 86 12 l36 18 32 -49 c18 -28
39 -50 47 -50 21 0 17 16 -16 62 -16 22 -30 45 -30 50 0 5 12 21 26 36 64 67
83 179 49 295 -17 59 -31 69 -58 40z m43 -144 c0 -66 -14 -111 -48 -157 -23
-30 -27 -31 -35 -16 -27 48 -4 192 42 263 l15 24 13 -29 c7 -16 12 -54 13 -85z"/>
<path d="M894 1166 c-56 -26 -96 -62 -119 -107 -19 -37 -31 -124 -18 -132 16
-10 111 23 160 56 54 36 103 119 103 174 0 32 -2 33 -37 33 -21 0 -61 -11 -89
-24z m92 -18 c-3 -7 -7 -25 -10 -40 -12 -55 -96 -128 -164 -141 -31 -6 -32 -6
-26 21 19 79 62 128 140 156 49 18 64 19 60 4z"/>
<path d="M117 1044 c-23 -24 18 -145 66 -194 41 -43 101 -70 155 -70 48 0 50
5 26 77 -24 69 -68 129 -117 157 -43 25 -118 42 -130 30z m99 -50 c19 -9 47
-31 63 -49 29 -33 68 -121 58 -131 -10 -11 -87 17 -117 42 -34 29 -53 61 -68
117 -10 34 -9 37 10 37 11 0 35 -7 54 -16z"/>
<path d="M734 838 c3 -17 13 -45 21 -61 8 -17 15 -31 15 -32 0 -1 -22 -16 -50
-33 -27 -17 -50 -36 -50 -41 0 -21 18 -19 61 10 53 35 60 35 85 8 56 -63 183
-86 295 -53 71 21 77 28 46 56 -68 63 -206 101 -299 81 -61 -13 -70 -7 -90 59
-14 48 -44 53 -34 6z m321 -123 c29 -12 55 -27 59 -33 7 -12 -69 -32 -126 -32
-63 1 -174 58 -152 79 27 27 145 19 219 -14z"/>
<path d="M167 696 c-72 -20 -79 -32 -37 -67 72 -61 217 -91 317 -66 31 8 32 8
50 -44 16 -46 36 -69 48 -57 5 4 -14 72 -29 108 -5 11 7 25 39 48 25 17 45 38
45 47 0 21 -4 20 -60 -19 l-50 -34 -32 30 c-17 16 -45 37 -62 45 -41 22 -168
27 -229 9z m233 -51 c54 -34 56 -43 13 -53 -81 -20 -145 -9 -223 36 l-45 26
40 13 c60 19 167 9 215 -22z"/>
<path d="M628 624 c-3 -3 9 -28 28 -57 l34 -51 -29 -31 c-46 -48 -64 -94 -67
-167 -4 -76 23 -181 46 -186 21 -4 75 83 95 153 17 58 17 156 0 198 -7 17 21
34 99 61 14 5 16 9 6 20 -10 13 -17 13 -52 0 -23 -8 -48 -20 -56 -27 -12 -9
-16 -9 -19 0 -7 20 -63 93 -71 93 -5 0 -11 -3 -14 -6z m85 -175 c14 -52 0
-154 -28 -213 -26 -53 -30 -57 -42 -40 -7 10 -14 32 -15 48 0 17 -2 45 -3 61
-2 41 22 115 48 143 26 27 33 28 40 1z"/>
<path d="M902 542 c-17 -45 52 -179 113 -219 41 -27 110 -46 136 -38 17 6 19
12 13 43 -22 125 -98 205 -212 222 -34 6 -45 4 -50 -8z m103 -41 c52 -23 101
-80 115 -132 6 -23 9 -43 6 -46 -12 -12 -74 9 -108 37 -35 29 -74 95 -83 139
-5 26 15 27 70 2z"/>
<path d="M455 396 c-119 -38 -188 -114 -200 -221 -1 -5 2 -17 7 -26 6 -14 15
-15 52 -8 136 25 220 130 207 257 -1 15 -14 14 -66 -2z m30 -63 c-11 -62 -74
-131 -135 -148 -14 -3 -33 -9 -42 -11 -44 -13 -1 98 54 140 35 26 94 54 117
55 10 1 12 -8 6 -36z"/>
</g>
</svg>
